<svg version="1.1" id="Layer_1" xmlns="http://www.w3.org/2000/svg" xmlns:xlink="http://www.w3.org/1999/xlink" x="0px" y="0px"
	 width="100%" viewBox="0 0 736 544" xml:space="preserve">
<path fill="#000000" opacity="1.000000" stroke="none"
	d="
M373.916992,393.344666
	C357.128235,394.371124 341.720062,390.613586 326.640045,384.823212
	C282.961487,368.051605 239.246674,351.374512 195.554138,334.639282
	C187.875397,331.698151 185.721161,328.570312 185.714172,320.364044
	C185.689316,291.198486 185.684860,262.032928 185.709244,232.867401
	C185.715363,225.534760 188.291885,221.915878 195.156311,219.296295
	C240.429977,202.019150 285.676086,184.669250 330.990662,167.499954
	C357.049316,157.626541 383.078094,158.364273 409.023438,168.293350
	C453.813568,185.434174 498.634430,202.494949 543.476440,219.499588
	C549.414429,221.751343 552.247681,225.899338 552.256836,232.025818
	C552.301514,262.024567 552.301758,292.023468 552.245605,322.022156
	C552.234497,327.957306 549.421387,332.068817 543.728577,334.233459
	C496.725098,352.106049 449.765289,370.093933 402.723053,387.863708
	C393.665558,391.285156 384.137299,393.026947 373.916992,393.344666
M338.756531,308.933533
	C325.057373,302.223785 314.359253,292.358063 306.784393,279.043182
	C301.225342,269.271576 298.762299,258.678070 297.751923,247.648239
	C297.442352,244.268570 296.340332,242.688477 292.653473,244.117538
	C277.599609,249.952606 262.475861,255.608032 247.438080,261.483765
	C240.338638,264.257721 237.358688,270.177887 237.475693,277.323303
	C237.594162,284.557404 241.197891,289.966125 248.245972,292.647888
	C281.697540,305.376190 315.127838,318.160645 348.608734,330.811310
	C362.242767,335.962860 376.043518,335.816895 389.622314,330.683563
	C423.103882,318.026215 456.507019,305.161530 489.958221,292.423706
	C493.556061,291.053711 496.266937,288.795471 498.146973,285.474487
	C503.227478,276.500031 499.559326,265.084534 490.042236,261.319855
	C475.028595,255.380920 459.897644,249.738541 444.816162,243.971085
	C443.574982,243.496445 442.336609,242.921234 440.498657,244.153305
	C439.417145,259.786224 435.401245,274.863739 425.220245,287.784241
	C414.960419,300.804810 401.945007,309.506439 385.816895,313.439819
	C369.895813,317.322723 354.445526,315.775391 338.756531,308.933533
M375.652954,271.292053
	C376.297028,267.867645 377.198242,264.467712 377.526459,261.013275
	C378.051392,255.489044 381.258606,252.838928 386.296753,251.592804
	C392.425934,250.076843 398.511017,248.382706 404.617432,246.774338
	C405.865753,246.445526 407.322784,246.465088 407.794067,244.584564
	C406.582306,243.105927 404.648590,242.970566 402.977875,242.499603
	C397.382233,240.922134 391.760406,239.426071 386.110748,238.055023
	C381.174469,236.857147 378.485748,233.909988 377.614471,228.863708
	C375.694275,217.742615 373.630768,206.643524 371.392914,195.582550
	C370.985626,193.569473 371.528992,190.807281 368.912994,189.610687
	C366.765289,190.770950 366.911865,192.862411 366.592346,194.517517
	C364.389771,205.927979 362.232819,217.350540 360.327271,228.813461
	C359.515686,233.695679 357.024963,236.618515 352.310303,237.831177
	C346.516815,239.321335 340.715637,240.788559 334.961151,242.418839
	C333.199524,242.917923 330.969696,242.750580 329.848206,244.809753
	C331.363739,247.035583 333.748352,246.903015 335.723724,247.471939
	C341.150482,249.034897 346.634155,250.405441 352.114319,251.776215
	C356.640289,252.908310 359.318695,255.747650 360.163361,260.284210
	C361.924622,269.743988 363.500916,279.240509 365.419586,288.667664
	C366.249359,292.744507 366.266724,297.115753 369.856171,300.939514
	C371.760651,291.341461 373.665131,281.743408 375.652954,271.292053
z"/>
</svg>
